<?xml version="1.0" encoding="iso-8859-1"?>
<!-- Generator: Adobe Illustrator 18.1.0, SVG Export Plug-In . SVG Version: 6.00 Build 0)  -->
<!DOCTYPE svg PUBLIC "-//W3C//DTD SVG 1.1//EN" "http://www.w3.org/Graphics/SVG/1.1/DTD/svg11.dtd">
<svg version="1.1" xmlns="http://www.w3.org/2000/svg" xmlns:xlink="http://www.w3.org/1999/xlink" x="0px" y="0px"
	 viewBox="0 0 20 20" style="enable-background:new 0 0 20 20;" xml:space="preserve">
<g id="rotate_x5F_image" style="display:none;">
	<g style="display:inline;">
		<path d="M1,17.422h8V3H1V17.422z M2,4h6v12.422H2V4z"/>
		<rect x="9.972" y="9.915" width="1" height="1"/>
		<rect x="12.765" y="9.915" width="1.793" height="1"/>
		<polygon points="16.35,9.915 16.35,10.915 16.85,10.915 16.85,11.415 17.85,11.415 17.85,9.915 		"/>
		<rect x="16.85" y="12.917" width="1" height="1.503"/>
		<polygon points="16.85,16.422 16.35,16.422 16.35,17.422 17.85,17.422 17.85,15.922 16.85,15.922 		"/>
		<rect x="12.765" y="16.422" width="1.793" height="1"/>
		<rect x="9.972" y="16.422" width="1" height="1"/>
		<path d="M16.608,6c0-2-1.302-3-3.572-3H10v1h3.036c1.73,0,2.572,1,2.572,2h-1.323l1.745,3.022L17.775,6H16.608z"/>
	</g>
</g>
<g id="bransd" style="display:none;">
	<path style="display:inline;" d="M20,7h-2.268c-0.929-2.314-2.792-4.053-5.178-4.79c-0.789-0.244-1.604-0.367-2.421-0.367
		C6.784,1.843,3.784,3.908,2.539,7H0v7h2.944c1.032,1.887,2.707,3.272,4.765,3.907c0.789,0.244,1.603,0.367,2.421,0.367
		c2.977,0,5.752-1.673,7.181-4.274H20V7z M10.132,2.843c0.718,0,1.433,0.108,2.126,0.322c1.966,0.606,3.535,1.983,4.396,3.83
		L3.62,6.975C4.801,4.477,7.335,2.843,10.132,2.843z M10.13,17.274c-0.718,0-1.433-0.108-2.126-0.322
		C6.375,16.449,5.015,15.413,4.099,14h12.065C14.846,16.013,12.56,17.274,10.13,17.274z M19,13l-1.165-0.003L1,13V8h18V13z"/>
</g>
<g id="user" style="display:none;">
	<path style="display:inline;" d="M12.482,10.089c1.203-0.749,2.007-2.073,2.007-3.594c0-2.343-1.901-4.243-4.245-4.243
		c-2.343,0-4.244,1.899-4.244,4.243c0,1.521,0.557,2.845,1.76,3.594C4.577,11.049,2,14.007,2,17.5V18h16v-0.5
		C18,14.007,15.666,11.049,12.482,10.089z M7,6.494c0-1.788,1.455-3.243,3.243-3.243c1.788,0,3.243,1.455,3.243,3.243
		c0,1.788-1.455,3.243-3.243,3.243C8.455,9.737,7,8.282,7,6.494z M3.519,17c0.256-3.485,3.174-6.243,6.724-6.243
		c3.549,0,6.467,2.757,6.724,6.243H3.519z"/>
</g>
<g id="voutcher" style="display:none;">
	<path style="display:inline;" d="M20,16H0v-2.986h0.5c0.72,0,1.284-0.564,1.284-1.284S1.22,10.446,0.5,10.446H0V7.662h0.5
		c0.72,0,1.284-0.564,1.284-1.284S1.22,5.095,0.5,5.095H0V4h0.5H20v0.823l-0.295,0.228c-0.601,0.271-1.489,0.879-1.489,1.328
		c0,0.432,0.864,1.048,1.488,1.327L20,7.838v2.431l-0.295,0.133c-0.601,0.271-1.489,0.879-1.489,1.328s0.889,1.058,1.489,1.328
		l0.294,0.133L20,16z M1,15h18v-1.175c-0.608-0.319-1.784-1.069-1.784-2.096S18.392,9.953,19,9.634v-1.16
		c-0.608-0.319-1.784-1.069-1.784-2.096c0-0.545,0.332-1.012,0.733-1.378H2.32c0.291,0.383,0.464,0.861,0.464,1.378
		c0,1.087-0.764,2-1.784,2.229v0.894c1.02,0.229,1.784,1.141,1.784,2.229c0,1.088-0.764,2-1.784,2.229V15z"/>
</g>
<g id="transaction" style="display:none;">
	<g style="display:inline;">
		<polygon points="13.92,9.857 14.602,10.59 19,6.501 14.602,2.411 13.92,3.144 16.993,6 1,6 1,7 16.995,7 		"/>
		<polygon points="6.08,10.143 5.398,9.41 1,13.499 5.398,17.589 6.08,16.856 3.007,14 19,14 19,13 3.005,13 		"/>
	</g>
</g>
<g id="notification" style="display:none;">
	<path style="display:inline;" d="M10,18.288c-1.255,0-2.327-1.025-2.446-2.288H2.16l1.623-2.908
		c0.45-0.747,0.979-1.957,1.063-2.637l0.444-5C5.42,4.411,6.298,3.416,7.29,3.173L8.334,2.91C8.546,2.18,9.217,1.65,10,1.65
		c0.782,0,1.452,0.525,1.664,1.249l1.045,0.255c0.994,0.243,1.872,1.229,1.999,2.244l0.447,4.993
		c0.085,0.673,0.626,1.979,1.053,2.686L17.84,16h-5.396C12.311,17.265,11.245,18.288,10,18.288z M8.561,16
		c0.111,0.718,0.725,1.288,1.439,1.288c0.692,0,1.308-0.576,1.434-1.288H8.561z M11.943,15h4.193l-0.793-1.422
		c-0.416-0.688-1.066-2.156-1.183-3.081l-0.447-4.993c-0.073-0.583-0.654-1.235-1.242-1.378l-1.716-0.419L10.732,3.34
		C10.708,2.953,10.386,2.65,10,2.65c-0.386,0-0.708,0.307-0.732,0.698L9.244,3.711L7.531,4.144C6.942,4.288,6.361,4.95,6.285,5.562
		l-0.444,5c-0.121,0.972-0.795,2.374-1.192,3.032L3.863,15H11.943z"/>
</g>
<g id="search" style="display:none;">
	<path id="magnifier-5-icon_1_" style="display:inline;" d="M16.71,14.304l-3.842-3.842C14.465,7.15,12.051,3.24,8.326,3.24
		c-2.779,0-5.04,2.26-5.04,5.04c0,3.666,3.796,6.083,7.099,4.6l3.875,3.876C15.361,16.847,16.806,15.445,16.71,14.304z
		 M8.326,11.644c-1.856,0-3.365-1.509-3.365-3.364s1.51-3.365,3.365-3.365c1.855,0,3.365,1.51,3.365,3.365
		S10.181,11.644,8.326,11.644z"/>
</g>
<g id="expend" style="display:none;">
	<g style="display:inline;">
		<polygon points="9.374,3.727 8.752,4.51 15.668,10 8.752,15.49 9.374,16.273 17.277,10 		"/>
		<polygon points="4.438,3.727 3.816,4.51 10.733,10 3.816,15.49 4.438,16.273 12.342,10 		"/>
	</g>
</g>
<g id="logo_x5F_min" style="display:none;">
	<rect style="display:inline;fill:#1CADEB;" width="16" height="6"/>
	<rect x="4" y="14" style="display:inline;fill:#ED5C76;" width="16" height="6"/>
	<path style="display:inline;fill:#166596;" d="M16,0L7.951,6h2.386L16,0z"/>
	<polygon style="display:inline;fill:#D71A41;" points="12.339,14 9.954,14 4,20 	"/>
	
		<rect x="7.19" y="-1.329" transform="matrix(0.7071 0.7071 -0.7071 0.7071 9.9994 -4.1441)" style="display:inline;fill:#FFD453;" width="5.625" height="22.654"/>
</g>
<g id="logo_x5F_max_x5F_staging" style="display:none;">
</g>
<g id="logo_x5F_max" style="display:none;">
</g>
<g id="add" style="display:none;">
	<polygon style="display:inline;" points="16,9 11,9 11,4 9,4 9,9 4,9 4,11 9,11 9,16 11,16 11,11 16,11 	"/>
</g>
<g id="trash" style="display:none;">
	<path style="display:inline;" d="M13.698,7.405l-0.754,7.845H7.422L6.668,7.405H13.698z M14.523,6.655H5.842L6.741,16h6.883
		L14.523,6.655L14.523,6.655z"/>
	
		<rect x="6.624" y="11.704" transform="matrix(0.1047 0.9945 -0.9945 0.1047 19.5244 2.1306)" style="display:inline;" width="3.91" height="0.409"/>
	
		<rect x="11.649" y="9.954" transform="matrix(0.9976 0.0698 -0.0698 0.9976 0.8599 -0.7981)" style="display:inline;" width="0.41" height="3.91"/>
	<rect x="9.859" y="9.114" style="display:inline;" width="0.492" height="4.918"/>
	<path style="display:inline;" d="M15.023,4.695l-0.072-0.487l-2.648,0.39c-0.388-1.152-1.486-1.767-2.67-1.593
		C8.449,3.18,7.575,4.085,7.535,5.3L4.977,5.677l0.072,0.487l6.812-1.003l0,0l0.561-0.083v0L15.023,4.695z M8.219,5.2
		C8.331,4.38,8.962,3.599,9.705,3.49c0.742-0.109,1.633,0.448,1.997,1.197L8.219,5.2z"/>
</g>
<g id="collapse" style="display:none;">
	<path style="display:inline;" d="M1,1v4.009V19h18V5.009V1H1z M2,2h16v2H2V2z M18,18H2V5h16V18z"/>
	<g style="display:inline;">
		<polygon points="13.357,11.539 14.089,10.857 10,6.459 5.911,10.857 6.643,11.539 9.5,8.466 9.5,16.459 10.5,16.459 10.5,8.464 		
			"/>
	</g>
</g>
<g id="calendar" style="display:none;">
	<g style="display:inline;">
		<path style="fill:#404040;" d="M9.448,10.007l0.834-0.945V8.451H7.83v0.736H9.06l-0.74,0.937v0.667
			c0.245-0.073,0.393-0.11,0.521-0.11c0.24,0,0.409,0.049,0.545,0.148c0.135,0.098,0.203,0.232,0.203,0.4
			c0,0.168-0.059,0.297-0.177,0.386c-0.118,0.089-0.268,0.133-0.45,0.133c-0.302,0-0.644-0.135-1.027-0.406l-0.371,0.719
			c0.46,0.317,0.915,0.476,1.363,0.476s0.817-0.121,1.105-0.363c0.288-0.242,0.433-0.575,0.433-1.001
			c0-0.286-0.088-0.538-0.265-0.757C10.022,10.197,9.773,10.061,9.448,10.007z"/>
		<polygon style="fill:#404040;" points="11.018,9.187 11.753,9.187 11.753,12.497 12.612,12.497 12.612,8.451 11.018,8.451 		"/>
		<path style="fill:#404040;" d="M17.375,3.791h-2.924V3.188c0-0.268-0.223-0.484-0.49-0.484c-0.268,0-0.49,0.216-0.49,0.484v0.603
			h-1.471V3.266c0-0.268-0.223-0.484-0.49-0.484c-0.268,0-0.49,0.216-0.49,0.484v0.526H9.791V3.188c0-0.268-0.223-0.484-0.49-0.484
			c-0.268,0-0.49,0.216-0.49,0.484v0.603H6.971V3.188c0-0.268-0.223-0.484-0.49-0.484c-0.268,0-0.49,0.216-0.49,0.484v0.603H3.066
			c-0.101,0-0.141,0.039-0.141,0.14v11.892c0,0.101,0.04,0.23,0.141,0.23h12.246c0.048,0,0.095-0.043,0.129-0.077l2.044-2.073
			c0.034-0.034,0.033-0.093,0.033-0.141V3.931C17.516,3.831,17.476,3.791,17.375,3.791z M17.149,13.601h-2.085v2.085H3.293V4.159
			H5.99V4.156c0,0.268,0.223,0.484,0.49,0.484c0.268,0,0.49-0.216,0.49-0.484v0.003h1.839V4.156c0,0.268,0.223,0.484,0.49,0.484
			c0.268,0,0.49-0.216,0.49-0.484v0.003h1.226v0.074c0,0.268,0.223,0.484,0.49,0.484c0.268,0,0.49-0.216,0.49-0.484V4.159h1.471
			V4.156c0,0.268,0.223,0.484,0.49,0.484c0.268,0,0.49-0.216,0.49-0.484v0.003h2.698V13.601z"/>
	</g>
</g>
<g id="copy_x5F_to_x5F_clipboard">
	<path d="M14.71,2H8.497C7.688,2,7,2.557,7,3.367V4h1V3.367C8,3.109,8.239,3,8.497,3h6.213C14.968,3,15,3.109,15,3.367v9.729
		C15,13.354,14.968,14,14.71,14H14v1h0.71c0.81,0,1.29-1.095,1.29-1.904V3.367C16,2.557,15.52,2,14.71,2z"/>
	<g>
		<path d="M12.27,17.668H5.728c-0.852,0-1.545-0.694-1.545-1.546V5.878c0-0.852,0.693-1.545,1.545-1.545h6.542
			c0.852,0,1.545,0.693,1.545,1.545v10.243C13.816,16.974,13.123,17.668,12.27,17.668z M5.728,5.386
			c-0.271,0-0.493,0.221-0.493,0.493v10.243c0,0.272,0.221,0.494,0.493,0.494h6.542c0.271,0,0.493-0.221,0.493-0.494V5.878
			c0-0.271-0.221-0.493-0.493-0.493H5.728z"/>
	</g>
	<g>
		<rect x="6.237" y="7.599" width="5.526" height="0.502"/>
		<rect x="6.237" y="8.649" width="5.526" height="0.502"/>
		<rect x="6.237" y="9.699" width="5.526" height="0.502"/>
		<rect x="6.237" y="10.749" width="5.526" height="0.502"/>
		<rect x="6.237" y="11.8" width="5.526" height="0.502"/>
		<rect x="6.237" y="12.85" width="5.526" height="0.502"/>
		<rect x="6.237" y="13.9" width="5.526" height="0.502"/>
	</g>
</g>
</svg>
